<svg width="148" height="152" viewBox="0 0 148 152" fill="none" xmlns="http://www.w3.org/2000/svg">
<g filter="url(#filter0_d_1_125)">
<path d="M147.131 1.23337C103.433 41.4787 79.4561 64.5891 34.7779 106.233L41.7688 113.733C82.9267 69.4642 105.728 45.6575 147.131 1.23337Z" fill="white" stroke="#BF423D" stroke-width="0.25"/>
<path fill-rule="evenodd" clip-rule="evenodd" d="M144.593 3.6125C143.194 5.10571 141.785 6.60739 141.463 6.94952C141.141 7.29182 140.245 8.25902 139.472 9.09883C138.699 9.93881 137.78 10.9314 137.43 11.3048C137.08 11.6781 136.417 12.3924 135.957 12.892C132.59 16.544 127.555 21.8817 127.477 21.8817C127.425 21.8817 126.952 21.6824 126.425 21.4388L125.468 20.9959L126.451 20.0448C126.993 19.5217 129.139 17.4966 131.221 15.5444C133.303 13.5922 135.311 11.7073 135.684 11.3559C136.057 11.0044 137.277 9.86028 138.396 8.81369C139.515 7.76694 141.896 5.53215 143.688 3.84744C145.48 2.16273 146.993 0.76741 147.049 0.746719C147.34 0.641037 146.93 1.11887 144.593 3.6125ZM123.224 26.5771C122.806 27.013 121.651 28.2348 120.657 29.2921C119.663 30.3493 118.54 31.5396 118.161 31.9372L117.471 32.66L116.036 32.0013C115.247 31.6392 114.616 31.2857 114.634 31.2159C114.652 31.1461 115.989 29.8477 117.605 28.3308C119.22 26.8137 120.771 25.3534 121.051 25.0857C121.331 24.8182 121.61 24.6008 121.673 24.6025C121.857 24.6079 123.927 25.597 123.957 25.6947C123.972 25.744 123.643 26.1411 123.224 26.5771ZM112.204 38.3451C111.259 39.3428 109.8 40.887 108.961 41.7766L107.435 43.3943L105.531 42.5041C104.484 42.0145 103.641 41.5649 103.658 41.5047C103.685 41.411 104.529 40.6051 108.509 36.8732C108.85 36.5528 109.47 35.971 109.885 35.5805C110.487 35.0135 110.688 34.8859 110.881 34.9473C111.377 35.1047 113.932 36.3606 113.927 36.4443C113.924 36.4919 113.149 37.3473 112.204 38.3451ZM103.788 47.3531C103.739 47.3738 102.917 48.2308 101.959 49.2573C101.002 50.2839 99.5874 51.7951 98.8168 52.6154L97.4153 54.1069L96.6059 53.7339C96.1607 53.5288 95.517 53.2309 95.1751 53.072C94.8333 52.9131 94.0988 52.5738 93.543 52.3182C92.5528 51.8627 92.5365 51.8488 92.7518 51.646C93.081 51.3355 98.0369 46.707 98.925 45.8803C99.4809 45.3631 99.7524 45.1823 99.8939 45.2354C100.002 45.2759 100.942 45.7 101.983 46.178C103.663 46.9489 104.087 47.2251 103.788 47.3531ZM91.8699 60.0386C90.798 61.1715 89.3648 62.6961 88.6853 63.4267C88.0059 64.1574 87.3957 64.7533 87.3294 64.7511C87.1163 64.7443 81.7049 62.2074 81.7134 62.1184C81.7178 62.0712 83.2868 60.5561 85.1997 58.7515C87.9201 56.1851 88.7277 55.4827 88.9067 55.527C89.3497 55.6369 93.8191 57.7738 93.8191 57.8757C93.8191 57.9326 92.9421 58.9059 91.8699 60.0386ZM83.6094 68.8881C83.476 69.0146 82.0234 70.5545 80.3812 72.3101C78.739 74.0653 77.3609 75.5017 77.3186 75.5017C77.2764 75.5017 76.5353 75.1655 75.6717 74.7547C74.808 74.3439 73.3641 73.6755 72.463 73.2698C71.5618 72.8639 70.7842 72.4955 70.7348 72.4507C70.6855 72.4061 70.8635 72.1754 71.1303 71.9381C72.0334 71.1346 74.2057 69.1164 75.3996 67.9711C77.0755 66.3636 77.7275 65.7733 77.8271 65.7733C77.9149 65.7733 79.0463 66.2738 80.8811 67.1247C83.2875 68.2404 83.8748 68.5295 83.8636 68.5917C83.857 68.628 83.7427 68.7615 83.6094 68.8881ZM73.337 79.8141C73.0737 80.0975 72.2201 81.012 71.4398 81.8465C70.6595 82.6809 69.4207 84.0128 68.6869 84.8061C67.9532 85.5994 67.3387 86.2484 67.3216 86.2484C67.3047 86.2484 66.7502 85.9938 66.0897 85.6827C65.4294 85.3716 64.8699 85.1172 64.8465 85.1172C64.823 85.1172 64.1247 84.7944 63.2944 84.4C62.4642 84.0056 61.3527 83.4902 60.8244 83.2547C60.2962 83.0193 59.8249 82.7913 59.777 82.7479C59.7292 82.7046 60.5875 81.8329 61.6842 80.8106C62.7811 79.7885 64.3711 78.3024 65.2177 77.5085C66.4214 76.3795 66.809 76.0772 66.9966 76.1214C67.1285 76.1522 67.6879 76.3866 68.2396 76.6423C72.2846 78.5159 73.6603 79.1632 73.7323 79.2265C73.7781 79.2663 73.6 79.5308 73.337 79.8141ZM63.3339 90.499C63.1035 90.7526 62.156 91.7707 61.2286 92.7615C60.3009 93.7522 59.0551 95.0841 58.4602 95.7214C57.8649 96.3585 57.3152 96.8803 57.2384 96.8808C57.1048 96.8818 53.0308 95.0307 50.1095 93.6415L48.7167 92.9791L50.7198 91.1126C51.8216 90.086 53.4145 88.5974 54.2597 87.8044C55.1047 87.0114 55.847 86.3619 55.9091 86.3612C56.0638 86.3592 63.7632 89.9108 63.7574 89.9813C63.755 90.0125 63.5645 90.2454 63.3339 90.499ZM50.6831 104.024C49.0207 105.793 47.2127 107.72 46.6652 108.305L45.6701 109.368L42.2019 105.894L38.7338 102.419L39.4683 101.714C41.0847 100.163 44.071 97.3483 44.4965 96.9746L44.9486 96.5778L47.83 97.9131C52.8015 100.217 53.7057 100.65 53.7057 100.73C53.7057 100.772 52.3454 102.254 50.6831 104.024ZM42.6542 133.569C42.4799 133.736 42.289 133.873 42.2301 133.873C42.1709 133.873 35.8295 127.572 28.1378 119.871L14.1529 105.869L14.5827 105.449C14.9842 105.056 15.0382 105.036 15.4041 105.142C16.397 105.428 21.2467 106.507 22.4625 106.712C27.1476 107.5 30.2938 107.205 34.024 105.627L34.7381 105.325L38.7404 109.333L42.7425 113.341L42.2922 114.435C40.4549 118.896 40.4922 122.596 42.4569 130.746C42.7398 131.919 42.9712 132.966 42.9712 133.072C42.9712 133.178 42.8286 133.402 42.6542 133.569ZM19.9494 131.752C16.2972 135.407 13.2578 138.398 13.1951 138.398C13.1325 138.398 12.3019 137.616 11.3495 136.662L9.61803 134.925L16.3049 128.223L22.9917 121.52L24.7906 123.313L26.5895 125.106L19.9494 131.752ZM12.0571 144.785C11.8138 144.886 10.1359 145.605 8.32854 146.383L5.0423 147.797L2.82007 145.587C0.669846 143.448 0.597839 143.362 0.597839 142.923C0.597839 142.594 0.98645 141.565 2.01761 139.161C2.79839 137.342 3.47345 135.816 3.51784 135.77C3.56206 135.725 5.60115 137.693 8.04886 140.144L12.4992 144.601L12.0571 144.785Z" fill="#BF423D"/>
</g>
<defs>
<filter id="filter0_d_1_125" x="0.597839" y="0.733276" width="146.625" height="151.064" filterUnits="userSpaceOnUse" color-interpolation-filters="sRGB">
<feFlood flood-opacity="0" result="BackgroundImageFix"/>
<feColorMatrix in="SourceAlpha" type="matrix" values="0 0 0 0 0 0 0 0 0 0 0 0 0 0 0 0 0 0 127 0" result="hardAlpha"/>
<feOffset dy="4"/>
<feComposite in2="hardAlpha" operator="out"/>
<feColorMatrix type="matrix" values="0 0 0 0 0 0 0 0 0 0 0 0 0 0 0 0 0 0 0.25 0"/>
<feBlend mode="normal" in2="BackgroundImageFix" result="effect1_dropShadow_1_125"/>
<feBlend mode="normal" in="SourceGraphic" in2="effect1_dropShadow_1_125" result="shape"/>
</filter>
</defs>
</svg>
