<svg width="76" height="131" viewBox="0 0 76 131" fill="none" xmlns="http://www.w3.org/2000/svg">
<g filter="url(#filter0_d_1_145)">
<path d="M73.4326 19.8386L2.43262 20.3459L2.91901 119.131C2.92595 120.542 4.70037 121.163 5.58643 120.065L20.4362 101.659L37.2663 122.52C37.6277 122.968 38.2918 123.019 38.7176 122.632L61.7683 101.659L70.598 118.464C71.3266 119.851 73.4258 119.333 73.4259 117.767L73.4326 19.8386Z" fill="#F6A343"/>
</g>
<path d="M6.43262 15.3458C19.1838 9.27165 36.9327 -0.154292 38.4326 0.345773C39.9338 0.846563 59.4332 10.846 73.4326 16.8458C74.9466 15.495 75.3602 15.9134 75.4326 18.3458C75.444 19.0008 75.4583 19.2796 75.4326 20.3458C74.9426 21.7532 73.9478 21.2559 72.9326 19.8458L2.43262 20.3458C0.44022 23.3342 0.432646 18.3831 0.432617 18.3458C0.432617 16.3458 0.932712 15.3454 2.43262 16.7452C3.43274 16.8451 5.9927 15.5553 6.43262 15.3458ZM41.2207 3.6905C41.076 3.81568 40.9172 3.99045 40.751 4.20026C39.3383 5.98368 36.5945 6.27851 35.2822 4.41999L34.9668 3.97273C34.8264 3.77382 34.5596 3.70681 34.3398 3.81159C24.5973 8.45645 19.0609 11.1621 9.32715 15.9825C31.6461 16.0704 44.1633 16.0504 66.4844 15.9151L41.2207 3.6905Z" fill="#3D2115"/>
<defs>
<filter id="filter0_d_1_145" x="2.43262" y="19.8386" width="71" height="111.053" filterUnits="userSpaceOnUse" color-interpolation-filters="sRGB">
<feFlood flood-opacity="0" result="BackgroundImageFix"/>
<feColorMatrix in="SourceAlpha" type="matrix" values="0 0 0 0 0 0 0 0 0 0 0 0 0 0 0 0 0 0 127 0" result="hardAlpha"/>
<feOffset dy="8"/>
<feComposite in2="hardAlpha" operator="out"/>
<feColorMatrix type="matrix" values="0 0 0 0 0 0 0 0 0 0 0 0 0 0 0 0 0 0 0.25 0"/>
<feBlend mode="normal" in2="BackgroundImageFix" result="effect1_dropShadow_1_145"/>
<feBlend mode="normal" in="SourceGraphic" in2="effect1_dropShadow_1_145" result="shape"/>
</filter>
</defs>
</svg>
