<svg width="148" height="152" viewBox="0 0 148 152" fill="none" xmlns="http://www.w3.org/2000/svg">
<g filter="url(#filter0_d_1_122)">
<path d="M0.161156 0.733276C43.8593 40.9787 67.8361 64.089 112.514 105.733L105.523 113.233C64.3655 68.9641 41.5643 45.1574 0.161156 0.733276Z" fill="white" stroke="#03838F" stroke-width="0.25"/>
<path fill-rule="evenodd" clip-rule="evenodd" d="M3.1344 3.28179C4.62566 4.68307 6.12538 6.09339 6.46707 6.41586C6.80893 6.7382 7.77486 7.63542 8.61357 8.40966C9.45245 9.1839 10.4438 10.1039 10.8167 10.4542C11.1895 10.8046 11.9028 11.4685 12.4017 11.9297C16.049 15.3011 21.3798 20.3423 21.3798 20.42C21.3798 20.4721 21.1807 20.946 20.9374 21.4734L20.4951 22.4324L19.5453 21.4472C19.0229 20.9053 17.0004 18.7563 15.0507 16.6717C13.101 14.5871 11.2186 12.5759 10.8676 12.2026C10.5166 11.8292 9.37402 10.6073 8.32881 9.48712C7.28342 8.36701 5.05154 5.98251 3.36903 4.18829C1.68654 2.39406 0.29303 0.879298 0.272369 0.822275C0.166824 0.53161 0.644012 0.941754 3.1344 3.28179ZM26.069 24.6787C26.5043 25.0977 27.7246 26.2544 28.7804 27.2494C29.8363 28.2444 31.025 29.3692 31.4221 29.7488L32.1439 30.4392L31.4861 31.8759C31.1245 32.6658 30.7714 33.2978 30.7018 33.2799C30.632 33.2619 29.3354 31.9234 27.8204 30.3055C26.3053 28.6876 24.8469 27.1347 24.5796 26.8547C24.3125 26.5746 24.0953 26.2946 24.097 26.2323C24.1024 26.0473 25.0902 23.9753 25.1878 23.9449C25.2371 23.9295 25.6336 24.2598 26.069 24.6787ZM37.8216 35.7133C38.8181 36.6595 40.3603 38.1209 41.2486 38.9609L42.8642 40.4884L41.9752 42.3949C41.4863 43.4436 41.0372 44.2873 40.9771 44.2701C40.8836 44.243 40.0788 43.3983 36.3517 39.4135C36.0317 39.0713 35.4507 38.4512 35.0607 38.0356C34.4944 37.4321 34.367 37.2311 34.4283 37.0377C34.5855 36.5416 35.8398 33.983 35.9233 33.9879C35.9709 33.9908 36.8252 34.7671 37.8216 35.7133ZM46.8179 44.1404C46.8386 44.1889 47.6944 45.0129 48.7196 45.9716C49.7449 46.9304 51.2541 48.3464 52.0733 49.118L53.5629 50.5213L53.1904 51.3318C52.9855 51.7775 52.6881 52.4221 52.5293 52.7644C52.3706 53.1067 52.0318 53.8422 51.7765 54.3987C51.3217 55.3902 51.3078 55.4065 51.1052 55.1909C50.7952 54.8613 46.1727 49.8989 45.347 49.0096C44.8305 48.4531 44.6499 48.1812 44.7029 48.0395C44.7434 47.9313 45.1669 46.9899 45.6443 45.9476C46.4142 44.2654 46.69 43.8412 46.8179 44.1404ZM59.4869 56.0739C60.6183 57.1473 62.1409 58.5823 62.8705 59.2627C63.6003 59.9431 64.1954 60.554 64.1932 60.6204C64.1864 60.8338 61.6529 66.2522 61.5639 66.2437C61.5168 66.2393 60.0037 64.6683 58.2015 62.7529C55.6384 60.0289 54.9369 59.2203 54.9811 59.041C55.0909 58.5974 57.225 54.1222 57.3268 54.1222C57.3836 54.1222 58.3556 55.0004 59.4869 56.0739ZM68.3248 64.3453C68.4511 64.4788 69.989 65.9333 71.7423 67.5777C73.4953 69.222 74.9298 70.6019 74.9298 70.6443C74.9298 70.6865 74.594 71.4286 74.1837 72.2934C73.7734 73.1581 73.106 74.604 72.7008 75.5062C72.2954 76.4086 71.9275 77.1872 71.8827 77.2367C71.8382 77.2861 71.6078 77.1078 71.3708 76.8407C70.5684 75.9364 68.5528 73.7613 67.409 72.5658C65.8036 70.8877 65.214 70.2348 65.214 70.1351C65.214 70.0472 65.7139 68.9143 66.5637 67.0771C67.678 64.6676 67.9667 64.0795 68.0288 64.0907C68.0651 64.0973 68.1984 64.2118 68.3248 64.3453ZM79.2365 74.6311C79.5196 74.8947 80.4328 75.7495 81.2663 76.5308C82.0996 77.312 83.4297 78.5525 84.222 79.2873C85.0143 80.022 85.6625 80.6372 85.6625 80.6543C85.6625 80.6713 85.4082 81.2265 85.0975 81.8878C84.7868 82.549 84.5327 83.1093 84.5327 83.1327C84.5327 83.1563 84.2103 83.8555 83.8165 84.6868C83.4226 85.5181 82.9078 86.631 82.6727 87.1601C82.4375 87.689 82.2099 88.1609 82.1665 88.2089C82.1233 88.2567 81.2527 87.3972 80.2318 86.2991C79.2109 85.2008 77.7268 83.6087 76.934 82.7611C75.8064 81.5557 75.5046 81.1676 75.5486 80.9798C75.5794 80.8477 75.8136 80.2876 76.0688 79.7351C77.9401 75.6848 78.5865 74.3073 78.6497 74.2352C78.6895 74.1894 78.9536 74.3677 79.2365 74.6311ZM89.9075 84.6473C90.1608 84.878 91.1775 85.8267 92.167 86.7554C93.1565 87.6842 94.4866 88.9316 95.1231 89.5274C95.7594 90.1234 96.2804 90.6738 96.281 90.7507C96.282 90.8845 94.4333 94.9638 93.0459 97.889L92.3844 99.2836L90.5202 97.2778C89.495 96.1746 88.0083 94.5796 87.2164 93.7334C86.4244 92.8873 85.7758 92.144 85.7751 92.0817C85.7731 91.9269 89.32 84.2174 89.3905 84.2232C89.4217 84.2256 89.6543 84.4164 89.9075 84.6473ZM103.414 97.3146C105.182 98.9791 107.106 100.79 107.69 101.338L108.752 102.334L105.282 105.807L101.812 109.28L101.108 108.544C99.5586 106.926 96.7478 103.935 96.3746 103.509L95.9784 103.057L97.3119 100.171C99.6128 95.1935 100.046 94.288 100.125 94.288C100.167 94.288 101.647 95.6501 103.414 97.3146ZM132.921 105.354C133.088 105.529 133.225 105.72 133.225 105.779C133.225 105.838 126.932 112.188 119.241 119.889L105.257 133.893L104.838 133.462C104.446 133.06 104.425 133.006 104.531 132.64C104.817 131.646 105.895 126.79 106.099 125.572C106.886 120.881 106.592 117.731 105.016 113.995L104.714 113.28L108.717 109.273L112.72 105.266L113.812 105.716C118.267 107.556 121.963 107.519 130.102 105.552C131.273 105.268 132.319 105.037 132.425 105.037C132.531 105.037 132.754 105.179 132.921 105.354ZM131.106 128.088C134.757 131.745 137.744 134.789 137.744 134.852C137.744 134.914 136.963 135.746 136.01 136.7L134.276 138.433L127.582 131.738L120.888 125.042L122.679 123.241L124.469 121.44L131.106 128.088ZM144.122 135.991C144.223 136.235 144.942 137.915 145.719 139.725L147.131 143.015L144.924 145.24C142.788 147.393 142.701 147.465 142.263 147.465C141.935 147.465 140.907 147.076 138.506 146.044C136.689 145.262 135.165 144.586 135.12 144.542C135.074 144.497 137.04 142.455 139.488 140.005L143.939 135.548L144.122 135.991Z" fill="#03838F"/>
</g>
<defs>
<filter id="filter0_d_1_122" x="0.0697021" y="0.641327" width="147.061" height="150.824" filterUnits="userSpaceOnUse" color-interpolation-filters="sRGB">
<feFlood flood-opacity="0" result="BackgroundImageFix"/>
<feColorMatrix in="SourceAlpha" type="matrix" values="0 0 0 0 0 0 0 0 0 0 0 0 0 0 0 0 0 0 127 0" result="hardAlpha"/>
<feOffset dy="4"/>
<feComposite in2="hardAlpha" operator="out"/>
<feColorMatrix type="matrix" values="0 0 0 0 0 0 0 0 0 0 0 0 0 0 0 0 0 0 0.25 0"/>
<feBlend mode="normal" in2="BackgroundImageFix" result="effect1_dropShadow_1_122"/>
<feBlend mode="normal" in="SourceGraphic" in2="effect1_dropShadow_1_122" result="shape"/>
</filter>
</defs>
</svg>
